<svg width="512" height="512" xmlns="http://www.w3.org/2000/svg">

 <g>
  <title>background</title>
  <rect fill="none" id="canvas_background" height="402" width="582" y="-1" x="-1"/>
 </g>
 <g>
  <title>Layer 1</title>
  <path fill="#bf0000" id="svg_2" d="m345.1,77.1c-27.5,-20.9 -58.5,-28.1 -97.8,-28.1c-29.8,0 -55.3,6.1 -75.5,19.7c-29.8,20.3 -43.8,54.4 -43.8,108.3l76.8,0c0,-14.4 -1.4,-29.9 7,-43.2c8.4,-13.3 20.1,-23.5 40.2,-23.5c20.4,0 30.9,5.9 40.8,18.1c8.4,10.4 11.6,22.8 11.6,36c0,11.4 -5.8,21.9 -12.7,31.4c-3.8,5.6 -8.8,10.6 -15.1,15.4c0,0 -41.5,24.7 -56.1,48.1c-10.9,17.4 -14.8,39.2 -15.7,65.3c-0.1,1.9 0.6,5.8 7.2,5.8c6.5,0 56,0 61.8,0c5.8,0 7,-4.4 7.1,-6.2c0.4,-9.5 1.6,-24.1 3.3,-29.6c3.3,-10.4 9.7,-19.5 19.7,-27.3l20.7,-14.3c18.7,-14.6 33.6,-26.5 40.2,-35.9c11.3,-15.4 19.2,-34.4 19.2,-56.9c0,-36.7 -13.5,-63.8 -38.9,-83.1zm-103.1,293.1c-25.9,-0.8 -47.3,17.2 -48.2,45.3c-0.8,28.2 19.5,46.7 45.5,47.5c27,0.8 47.9,-16.6 48.7,-44.7c0.8,-28.1 -19,-47.3 -46,-48.1z"/>
 </g>
</svg>